<svg xmlns="http://www.w3.org/2000/svg" id="Layer_1" x="0" y="0" viewBox="0 0 250 250" xml:space="preserve"><style>.st1{fill:#ffcb04}</style><path class="st1" d="M125 250C56.07 250 0 193.92 0 125 0 56.07 56.07 0 125 0s125 56.07 125 125c0 68.92-56.07 125-125 125zm0-244.28C59.23 5.72 5.72 59.23 5.72 125c0 65.77 53.51 119.28 119.28 119.28S244.28 190.77 244.28 125C244.28 59.23 190.77 5.72 125 5.72z"/><path class="st1" d="M199.68 63.82h-108c-1.35 0-2.44 1.09-2.44 2.44v11.21H76.08c-1.35 0-2.44 1.09-2.44 2.44v6.95H55.99c-4.43 0-8.03 3.6-8.03 8.03v74.04c0 4.43 3.6 8.03 8.03 8.03h45.35l-2.61 11.7h-8.27c-1.35 0-2.44 1.09-2.44 2.44s1.09 2.44 2.44 2.44h42.84c1.35 0 2.44-1.09 2.44-2.44s-1.09-2.44-2.44-2.44h-8.27l-2.61-11.7h45.34c4.43 0 8.03-3.6 8.03-8.03v-16.31h8.29c1.35 0 2.44-1.09 2.44-2.44v-11.21h13.16c1.35 0 2.44-1.09 2.44-2.44V66.26c0-1.35-1.1-2.44-2.44-2.44zm-123.6 88.8h87.36v11.99H60.31v-65.4h13.33v50.97c0 1.35 1.09 2.44 2.44 2.44zm27.64 36.04l2.61-11.7h11.09l2.61 11.7h-16.31zm67.19-19.73a3.15 3.15 0 01-3.15 3.15H55.99a3.15 3.15 0 01-3.15-3.15V94.89c0-1.74 1.42-3.15 3.15-3.15h17.65v2.6H57.87c-1.35 0-2.44 1.09-2.44 2.44v70.27c0 1.35 1.09 2.44 2.44 2.44h108c1.35 0 2.44-1.09 2.44-2.44v-14.43h2.6v16.31zm10.73-21.19H78.51v-65.4h10.73v54.18c0 1.35 1.09 2.44 2.44 2.44h89.96v8.78zm15.6-13.65H94.11V77.37h103.13v56.72zm0-61.59H94.11v-3.8h103.13v3.8zm0 0"/><path class="st1" d="M99.15 131.49h24.08c1.35 0 2.44-1.09 2.44-2.44V82.41c0-1.35-1.09-2.44-2.44-2.44H99.15c-1.35 0-2.44 1.09-2.44 2.44v46.64c0 1.35 1.1 2.44 2.44 2.44zm2.44-46.64h19.2v41.76h-19.2V84.85zm66.57 46.64h24.07c1.35 0 2.44-1.09 2.44-2.44V82.41c0-1.35-1.09-2.44-2.44-2.44h-24.07c-1.35 0-2.44 1.09-2.44 2.44v46.64c0 1.35 1.09 2.44 2.44 2.44zm2.44-46.64h19.2v41.76h-19.2V84.85zm-36.94 46.64h24.07c1.35 0 2.44-1.09 2.44-2.44V82.41c0-1.35-1.09-2.44-2.44-2.44h-24.07c-1.35 0-2.44 1.09-2.44 2.44v46.64c0 1.35 1.09 2.44 2.44 2.44zm2.43-46.64h19.2v41.76h-19.2V84.85zm0 0"/></svg>